# xmcd
#
# Track frame offsets: 
#        150
#        28853
#        61206
#        100546
#        142951
#        173514
#        197996
#        214502
#        246382
#        263389
#
# Disc length: 3741 seconds
#
# Revision: 0
# Processed by: cddbd v1.5.2PL0 Copyright (c) Steve Scherf et al.
# Submitted via: ExactAudioCopy v0.95b3
#
DISCID=810e9b0a
DTITLE=Mighty Baby  - A Jug Of Love (1971)  
DYEAR=1900
DGENRE=
TTITLE0=A Jug Of Love
TTITLE1=The Happiest Man In The Carnival
TTITLE2=Keep On Jugging
TTITLE3=Virgin Spring
TTITLE4=Tasting The Life
TTITLE5=Slipstreams
TTITLE6=Devil's Whisper ( 45a ) ( Bonus )
TTITLE7=Virgin Spring ( 45b ) ( Bonus )
TTITLE8=Messages ( Prev. Unreleased ) ( Bonus )
TTITLE9=Ancient Traveller ( Prev. Unreleased ) ( Bonus )
EXTD=
EXTT0=
EXTT1=
EXTT2=
EXTT3=
EXTT4=
EXTT5=
EXTT6=
EXTT7=
EXTT8=
EXTT9=
PLAYORDER=
